<svg width="1400" height="800" viewBox="0 0 1400 800" fill="none" xmlns="http://www.w3.org/2000/svg">
<path d="M168 0.00195312V1260" stroke="white" stroke-opacity="0.07"/>
<path d="M188 0.00195312V1260" stroke="white" stroke-opacity="0.07"/>
<path d="M208 0.00195312V1260" stroke="white" stroke-opacity="0.07"/>
<path d="M228 0.00195312V1260" stroke="white" stroke-opacity="0.07"/>
<path d="M248 0.00195312V1260" stroke="white" stroke-opacity="0.07"/>
<path d="M268 0.00195312V1260" stroke="white" stroke-opacity="0.07"/>
<path d="M288 0.00195312V1260" stroke="white" stroke-opacity="0.07"/>
<path d="M308 0.00195312V1260" stroke="white" stroke-opacity="0.07"/>
<path d="M328 0.00195312V1260" stroke="white" stroke-opacity="0.07"/>
<path d="M348 0.00195312V1260" stroke="white" stroke-opacity="0.07"/>
<path d="M368 0.00195312V1260" stroke="white" stroke-opacity="0.07"/>
<path d="M8 0V1260" stroke="white" stroke-opacity="0.07"/>
<path d="M28 0V1260" stroke="white" stroke-opacity="0.07"/>
<path d="M48 0V1260" stroke="white" stroke-opacity="0.07"/>
<path d="M68 0V1260" stroke="white" stroke-opacity="0.07"/>
<path d="M88 0V1260" stroke="white" stroke-opacity="0.07"/>
<path d="M108 0V1260" stroke="white" stroke-opacity="0.07"/>
<path d="M128 0V1260" stroke="white" stroke-opacity="0.07"/>
<path d="M148 0V1260" stroke="white" stroke-opacity="0.07"/>
<path d="M388 0.00195312V1260" stroke="white" stroke-opacity="0.07"/>
<path d="M408 0.00195312V1260" stroke="white" stroke-opacity="0.07"/>
<path d="M428 0.00195312V1260" stroke="white" stroke-opacity="0.07"/>
<path d="M448 0.00195312V1260" stroke="white" stroke-opacity="0.07"/>
<path d="M468 0.00195312V1260" stroke="white" stroke-opacity="0.07"/>
<path d="M488 0.00195312V1260" stroke="white" stroke-opacity="0.07"/>
<path d="M508 0.00195312V1260" stroke="white" stroke-opacity="0.07"/>
<path d="M528 0.00195312V1260" stroke="white" stroke-opacity="0.07"/>
<path d="M548 0.00195312V1260" stroke="white" stroke-opacity="0.07"/>
<path d="M568 0.00195312V1260" stroke="white" stroke-opacity="0.07"/>
<path d="M588 0.00195312V1260" stroke="white" stroke-opacity="0.07"/>
<path d="M608 0.00195312V1260" stroke="white" stroke-opacity="0.07"/>
<path d="M628 0.00195312V1260" stroke="white" stroke-opacity="0.07"/>
<path d="M648 0.00195312V1260" stroke="white" stroke-opacity="0.07"/>
<path d="M668 0.00195312V1260" stroke="white" stroke-opacity="0.07"/>
<path d="M688 0.00195312V1260" stroke="white" stroke-opacity="0.07"/>
<path d="M708 0.00195312V1260" stroke="white" stroke-opacity="0.07"/>
<path d="M728 0.00195312V1260" stroke="white" stroke-opacity="0.07"/>
<path d="M748 0.00195312V1260" stroke="white" stroke-opacity="0.07"/>
<path d="M768 0.00195312V1260" stroke="white" stroke-opacity="0.07"/>
<path d="M788 0.00195312V1260" stroke="white" stroke-opacity="0.07"/>
<path d="M808 0.00195312V1260" stroke="white" stroke-opacity="0.07"/>
<path d="M828 0.00195312V1260" stroke="white" stroke-opacity="0.07"/>
<path d="M848 0.00195312V1260" stroke="white" stroke-opacity="0.07"/>
<path d="M868 0.00195312V1260" stroke="white" stroke-opacity="0.07"/>
<path d="M888 0.00195312V1260" stroke="white" stroke-opacity="0.07"/>
<path d="M908 0.00195312V1260" stroke="white" stroke-opacity="0.07"/>
<path d="M928 0.00195312V1260" stroke="white" stroke-opacity="0.07"/>
<path d="M948 0.00195312V1260" stroke="white" stroke-opacity="0.07"/>
<path d="M968 0.00195312V1260" stroke="white" stroke-opacity="0.07"/>
<path d="M988 0.00195312V1260" stroke="white" stroke-opacity="0.07"/>
<path d="M1008 0.00195312V1260" stroke="white" stroke-opacity="0.07"/>
<path d="M1028 0.00195312V1260" stroke="white" stroke-opacity="0.07"/>
<path d="M1048 0.00195312V1260" stroke="white" stroke-opacity="0.07"/>
<path d="M1068 0.00195312V1260" stroke="white" stroke-opacity="0.07"/>
<path d="M1088 0.00195312V1260" stroke="white" stroke-opacity="0.07"/>
<path d="M1108 0.00195312V1260" stroke="white" stroke-opacity="0.07"/>
<path d="M1128 0.00195312V1260" stroke="white" stroke-opacity="0.07"/>
<path d="M1148 0.00195312V1260" stroke="white" stroke-opacity="0.07"/>
<path d="M1168 0.00195312V1260" stroke="white" stroke-opacity="0.07"/>
<path d="M1188 0.00195312V1260" stroke="white" stroke-opacity="0.07"/>
<path d="M1208 0.00195312V1260" stroke="white" stroke-opacity="0.07"/>
<path d="M1228 0.00195312V1260" stroke="white" stroke-opacity="0.07"/>
<path d="M1248 0.00195312V1260" stroke="white" stroke-opacity="0.07"/>
<path d="M1268 0.00195312V1260" stroke="white" stroke-opacity="0.07"/>
<path d="M1288 0.00195312V1260" stroke="white" stroke-opacity="0.07"/>
<path d="M1308 0.00195312V1260" stroke="white" stroke-opacity="0.07"/>
<path d="M1328 0.00195312V1260" stroke="white" stroke-opacity="0.07"/>
<path d="M1348 0.00195312V1260" stroke="white" stroke-opacity="0.07"/>
<path d="M1368 0.00195312V1260" stroke="white" stroke-opacity="0.07"/>
<path d="M1388 0.00195312V1260" stroke="white" stroke-opacity="0.07"/>
<path d="M-52 800L1477 800" stroke="white" stroke-opacity="0.07"/>
<path d="M-52 780L1477 780" stroke="white" stroke-opacity="0.07"/>
<path d="M-52 760L1477 760" stroke="white" stroke-opacity="0.07"/>
<path d="M-52 740L1477 740" stroke="white" stroke-opacity="0.07"/>
<path d="M-52 720L1477 720" stroke="white" stroke-opacity="0.07"/>
<path d="M-52 700L1477 700" stroke="white" stroke-opacity="0.07"/>
<path d="M-52 680L1477 680" stroke="white" stroke-opacity="0.07"/>
<path d="M-52 660L1477 660" stroke="white" stroke-opacity="0.07"/>
<path d="M-52 640L1477 640" stroke="white" stroke-opacity="0.07"/>
<path d="M-52 620L1477 620" stroke="white" stroke-opacity="0.07"/>
<path d="M-52 600L1477 600" stroke="white" stroke-opacity="0.07"/>
<path d="M-52 580L1477 580" stroke="white" stroke-opacity="0.07"/>
<path d="M-52 560L1477 560" stroke="white" stroke-opacity="0.07"/>
<path d="M-52 540L1477 540" stroke="white" stroke-opacity="0.07"/>
<path d="M-52 520L1477 520" stroke="white" stroke-opacity="0.07"/>
<path d="M-52 500L1477 500" stroke="white" stroke-opacity="0.07"/>
<path d="M-52 480L1477 480" stroke="white" stroke-opacity="0.07"/>
<path d="M-52 460L1477 460" stroke="white" stroke-opacity="0.07"/>
<path d="M-52 440L1477 440" stroke="white" stroke-opacity="0.07"/>
<path d="M-52 420L1477 420" stroke="white" stroke-opacity="0.07"/>
<path d="M-52 400L1477 400" stroke="white" stroke-opacity="0.07"/>
<path d="M-52 380L1477 380" stroke="white" stroke-opacity="0.07"/>
<path d="M-52 360L1477 360" stroke="white" stroke-opacity="0.07"/>
<path d="M-52 340L1477 340" stroke="white" stroke-opacity="0.07"/>
<path d="M-52 320L1477 320" stroke="white" stroke-opacity="0.07"/>
<path d="M-52 300L1477 300" stroke="white" stroke-opacity="0.07"/>
<path d="M-52 280L1477 280" stroke="white" stroke-opacity="0.07"/>
<path d="M-52 260L1477 260" stroke="white" stroke-opacity="0.07"/>
<path d="M-52 240L1477 240" stroke="white" stroke-opacity="0.07"/>
<path d="M-52 220L1477 220" stroke="white" stroke-opacity="0.07"/>
<path d="M-52 200L1477 200" stroke="white" stroke-opacity="0.07"/>
<path d="M-52 180L1477 180" stroke="white" stroke-opacity="0.07"/>
<path d="M-52 160L1477 160" stroke="white" stroke-opacity="0.07"/>
<path d="M-52 140L1477 140" stroke="white" stroke-opacity="0.07"/>
<path d="M-52 120L1477 120" stroke="white" stroke-opacity="0.07"/>
<path d="M-52 100L1477 99.9999" stroke="white" stroke-opacity="0.07"/>
<path d="M-52 80L1477 79.9999" stroke="white" stroke-opacity="0.07"/>
<path d="M-52 60L1477 59.9999" stroke="white" stroke-opacity="0.07"/>
<path d="M-52 40L1477 39.9999" stroke="white" stroke-opacity="0.07"/>
<path d="M-52 20L1477 19.9999" stroke="white" stroke-opacity="0.07"/>
<path d="M-52 0L1477 -6.68347e-05" stroke="white" stroke-opacity="0.07"/>
</svg>
